# xmcd
#
# Track frame offsets:
#	150
#	18171
#	35287
#	54779
#	78074
#	96238
#	118154
#	140203
#	160097
#	181123
#	204953
#	213993
#	238091
#	262350
#
# Disc length: 3730 seconds
#
# Revision: 0
# Processed by: cddbd v1.5.2PL0 Copyright (c) Steve Scherf et al.
# Submitted via: dBpowerAMP V4.0
#
DISCID=b80e900e
DTITLE=John Legend - Once Again
DYEAR=1900
DGENRE=
TTITLE0=Save Room
TTITLE1=Heaven
TTITLE2=Stereo
TTITLE3=Show Me
TTITLE4=Each Day Gets Better
TTITLE5=PDA
TTITLE6=Slow Dance
TTITLE7=Again
TTITLE8=Maxine
TTITLE9=Where Did My Baby Go
TTITLE10=Maxine's Interlude
TTITLE11=Another Again
TTITLE12=Coming Home
TTITLE13=The Pirate Bay
EXTD=
EXTT0=
EXTT1=
EXTT2=
EXTT3=
EXTT4=
EXTT5=
EXTT6=
EXTT7=
EXTT8=
EXTT9=
EXTT10=
EXTT11=
EXTT12=
EXTT13=
PLAYORDER=
